# xmcd
#
# Track frame offsets:
#	150
#	23200
#	49496
#	71310
#	93844
#	110641
#	133816
#	153571
#	174316
#	195054
#	213504
#	231274
#	247535
#	267447
#	286580
#
# Disc length: 4140 seconds
#
# Revision: 0
# Processed by: cddbd v1.5.2PL0 Copyright (c) Steve Scherf et al.
# Submitted via: EZCDAudioConverter 1.3.4.1
#
DISCID=c7102a0f
DTITLE=V/A - 30: Real World At Womad 2/2
DYEAR=1900
DGENRE=
TTITLE0=Yungchen Lhamo - Happiness Is...
TTITLE1=Zawose And Brook - Chilumi Kigumu
TTITLE2=Nusrat Fateh Ali Khan - Tracery
TTITLE3=Geoffrey Oryema - Makambo
TTITLE4=Aurelio - Lubara Wanwa
TTITLE5=Orquestra Reve - Ruñidera
TTITLE6=Little Axe - Hard Times
TTITLE7=Joseph Arthur - Redemption's Son
TTITLE8=Sevara Nazarkhan - Erkalab
TTITLE9=Toto La Momposina Y Sus Tambores - El Pescador
TTITLE10=Creole Choir Of Cuba - Edem Chanté
TTITLE11=Guo Yue - Dragonfly
TTITLE12=Iarla O Lionaird - Eleanor Plunkett
TTITLE13=Spiro - The City And The Stars
TTITLE14=Peter Gabriel - The Rhythm Of The Heat
EXTD=
EXTT0=
EXTT1=
EXTT2=
EXTT3=
EXTT4=
EXTT5=
EXTT6=
EXTT7=
EXTT8=
EXTT9=
EXTT10=
EXTT11=
EXTT12=
EXTT13=
EXTT14=
PLAYORDER=
